<?xml version="1.0" encoding="UTF-8"?>
<svg width="825px" height="317px" viewBox="0 0 825 317" version="1.1" xmlns="http://www.w3.org/2000/svg" xmlns:xlink="http://www.w3.org/1999/xlink">
    <!-- Generator: Sketch 54.1 (76490) - https://sketchapp.com -->
    <title>aid</title>
    <desc>Created with Sketch.</desc>
    <g id="Flyers" stroke="none" stroke-width="1" fill="none" fill-rule="evenodd">
        <g id="A4-Copy" transform="translate(-9.000000, -139.000000)" fill="#FFFFFF" fill-rule="nonzero">
            <g id="aid" transform="translate(9.000000, 139.000000)">
                <rect id="Rectangle" x="558" y="16" width="267" height="70" rx="35"></rect>
                <rect id="Rectangle-Copy" x="558" y="124" width="267" height="70" rx="35"></rect>
                <rect id="Rectangle-Copy-2" x="558" y="231" width="267" height="70" rx="35"></rect>
                <path d="M489.632748,305.249616 C476.627775,305.161086 466.890216,300.363955 460.419779,290.858079 C447.88621,301.783973 432.672837,307.293976 414.779207,307.388253 C388.039157,307.275186 365.690826,297.072883 347.733543,276.781038 C330.898775,258.110586 321.321124,235.487677 319.000301,208.911634 C316.423974,179.409787 322.430809,152.718424 337.020984,128.836745 C353.101818,102.367578 375.500621,87.8746706 404.218066,85.3575872 C422.22731,83.779077 438.815592,86.9930243 453.983406,94.9995256 L454.002274,40.456484 C454.017609,29.3993979 457.322141,20.2038747 463.915974,12.8696386 C470.509807,5.53540253 479.081593,1.89735173 489.631593,1.9553771 C499.916931,1.79091677 508.386727,5.40934985 515.041238,12.8107848 C521.695746,20.2122198 525.015282,29.4413419 524.999947,40.4984279 L524.865079,266.414782 C524.849745,277.471868 521.545212,286.667391 514.95138,294.001627 C508.357547,301.335864 499.918087,305.085155 489.632748,305.249616 Z M421.776228,151.626826 C412.220995,151.727293 404.514664,156.149365 398.657003,164.893174 C392.799342,173.636984 389.794436,184.157482 389.642193,196.454984 C389.712026,208.487338 392.685519,218.668088 398.562763,226.997542 C404.503877,236.058446 412.25194,240.538598 421.807173,240.438131 C431.627067,240.56015 439.460403,236.188366 445.307418,227.322648 C451.154432,218.45693 454.000398,207.520425 453.845396,194.512803 C453.997638,182.215301 451.145828,172.023885 445.28988,163.938248 C439.433928,155.852612 431.596122,151.748845 421.776228,151.626826 Z M264.277861,77.5749256 C253.749095,77.7573714 244.657636,73.8489034 237.003209,65.8494041 C229.348782,57.8499043 225.430573,48.5762042 225.248463,38.0280246 C225.284745,27.98148 229.234224,19.120868 237.097019,11.4459229 C244.959814,3.77097783 254.027084,-0.0418585465 264.2991,0.0072994086 C274.583903,-0.187955475 283.623962,3.53400362 291.419548,11.1732884 C299.215135,18.8125731 303.088336,27.7775597 303.039269,38.0685172 C302.96463,48.8483003 299.175746,58.1462353 291.672503,65.9626005 C284.16926,73.7789658 275.037804,77.6497021 264.277861,77.5749256 Z M264.172672,316.993354 C253.643907,317.1758 245.085374,313.601663 238.496817,306.270837 C231.90826,298.940011 228.657743,289.762637 228.745167,278.738441 L228.790759,137.573078 C228.63422,126.536073 231.864606,117.392625 238.482015,110.14246 C245.099424,102.892295 253.672382,99.176045 264.201148,98.9935993 C274.717128,99.0555665 283.269268,102.751908 289.857825,110.082734 C296.446382,117.41356 299.6969,126.590933 299.609475,137.615129 L299.929826,278.799706 C299.842402,289.823902 296.490036,298.960946 289.872627,306.211111 C283.255218,313.461276 274.688653,317.055321 264.172672,316.993354 Z M172.010638,314.058147 C168.751299,314.05784 165.574441,313.699826 162.479966,312.984093 C154.386727,311.112176 148.079161,306.387904 143.557081,298.811134 C130.079165,310.513757 114.450507,316.318283 96.6706375,316.224886 C89.3828951,316.297579 82.2876012,315.535619 75.3845439,313.938984 C53.0091165,308.763685 34.9010897,296.223595 21.0599204,276.318339 C7.21875112,256.413082 0.198847845,232.748168 0,205.322887 C0.0558737383,195.288364 1.18289465,185.501742 3.38109654,175.962727 C8.93155633,151.876714 20.2356317,132.198842 37.2936618,116.92852 C54.351692,101.658198 74.050062,93.9691699 96.3893632,93.8612049 C102.670005,93.8067621 108.666673,94.4402079 114.379548,95.7615609 C125.567262,98.3492106 135.344674,103.248081 143.712076,110.458319 C150.414754,100.956417 159.808558,96.0960401 171.893769,95.8770419 C175.867217,96.0425179 179.520142,96.5106433 182.852653,97.2814328 C198.563059,100.915154 206.462766,115.050244 206.55201,139.687127 L206.512283,270.419672 C206.419977,278.436279 205.796805,284.948476 204.642749,289.956459 C200.905806,306.172785 190.028544,314.2066 172.010638,314.058147 Z M72.9790895,190.553208 C71.8799883,195.322715 71.2294925,200.321498 71.0275826,205.549707 C71.0448799,216.354712 73.3785972,225.811461 78.0288037,233.920237 C82.6790105,242.029013 89.050638,247.019285 97.1438779,248.891202 C106.4273,251.038401 114.420077,248.993754 121.122449,242.757202 C127.366965,237.419494 131.615737,229.862009 133.868894,220.084518 C134.91304,215.553486 135.417042,210.646411 135.380916,205.363146 C135.418573,194.319666 133.126072,184.684063 128.503343,176.456049 C123.880614,168.228035 117.641741,163.205673 109.786538,161.388813 C100.503116,159.241614 92.6110625,161.12117 86.110141,167.027538 C79.6092198,172.933906 75.2322462,180.775718 72.9790895,190.553208 Z" id="Combined-Shape"></path>
            </g>
        </g>
    </g>
</svg>