<?xml version="1.0" encoding="UTF-8"?>
<svg width="107px" height="41px" viewBox="0 0 107 41" version="1.1" xmlns="http://www.w3.org/2000/svg" xmlns:xlink="http://www.w3.org/1999/xlink">
    <!-- Generator: Sketch 54.1 (76490) - https://sketchapp.com -->
    <title>aid</title>
    <desc>Created with Sketch.</desc>
    <g id="Page-1" stroke="none" stroke-width="1" fill="none" fill-rule="evenodd">
        <g id="Desktop-HD-Copy-3" transform="translate(-231.000000, -8.000000)" fill-rule="nonzero">
            <g id="aid" transform="translate(231.000000, 8.000000)">
                <rect id="Rectangle" fill="#F5A623" x="72.170347" y="2.06940063" width="34.533123" height="9.05362776" rx="4.52681388"></rect>
                <rect id="Rectangle-Copy" fill="#F5A623" x="72.170347" y="16.0378549" width="34.533123" height="9.05362776" rx="4.52681388"></rect>
                <rect id="Rectangle-Copy-2" fill="#F5A623" x="72.170347" y="29.8769716" width="34.533123" height="9.05362776" rx="4.52681388"></rect>
                <path d="M63.3278948,39.4802342 C61.6458636,39.468784 60.3864317,38.8483348 59.5495613,37.6188683 C57.9285003,39.0319964 55.9608401,39.7446467 53.646522,39.7568403 C50.1880298,39.7422165 47.2975516,38.4226758 44.9750008,35.7981784 C42.7976334,33.3833881 41.5588835,30.4573968 41.258714,27.0201166 C40.9254982,23.2044203 41.7024074,19.7522252 43.5894648,16.6634276 C45.6693203,13.2399707 48.5663263,11.3654937 52.2805701,11.0399403 C54.6098414,10.8357797 56.7553289,11.2514637 58.7170967,12.2870049 L58.719537,5.2325421 C58.7215204,3.80244578 59.1489204,2.61311944 60.0017506,1.66452739 C60.8545807,0.715935343 61.9632345,0.245398805 63.3277454,0.252903663 C64.6580258,0.231632769 65.7534883,0.699632 66.6141665,1.65691539 C67.4748441,2.61419878 67.9041847,3.80787072 67.9022014,5.23796702 L67.8847579,34.4574324 C67.8827745,35.8875287 67.4553745,37.076855 66.6025444,38.0254471 C65.7497143,38.9740391 64.6581752,39.4589633 63.3278948,39.4802342 Z M54.5514996,19.6110406 C53.3156492,19.6240348 52.3189313,20.1959746 51.5613158,21.3268774 C50.8037004,22.4577803 50.4150532,23.8184756 50.3953625,25.4090042 C50.4043945,26.9652392 50.7889788,28.2819925 51.549127,29.3593035 C52.3175362,30.5312186 53.3196515,31.1106704 54.5555019,31.0976763 C55.8255828,31.1134579 56.8387273,30.5480221 57.5949657,29.401352 C58.3512041,28.2546818 58.7192944,26.8401811 58.6992468,25.1578074 C58.7189374,23.5672787 58.3500914,22.249146 57.5926974,21.2033697 C56.835303,20.1575933 55.8215805,19.6268223 54.5514996,19.6110406 Z M34.1810483,10.03335 C32.8192836,10.0569471 31.6434166,9.55143546 30.6534119,8.5167999 C29.6634072,7.48216428 29.1566356,6.28272672 29.1330819,4.91845113 C29.1377746,3.61905577 29.6485905,2.47304602 30.665545,1.48038751 C31.6824996,0.487728993 32.8552379,-0.00541388141 34.1837953,0.000944087548 C35.5140064,-0.0243096987 36.6832254,0.457079333 37.6914873,1.44512562 C38.6997493,2.43317191 39.2006996,3.59268123 39.1943534,4.92368835 C39.1846998,6.31791897 38.6946549,7.52049099 37.7242038,8.53144044 C36.7537528,9.54238989 35.5727128,10.0430214 34.1810483,10.03335 Z M34.1674434,40.9991405 C32.8056788,41.0227376 31.6987392,40.5604675 30.8465915,39.6123164 C29.9944438,38.6641655 29.5740298,37.4771865 29.585337,36.0513441 L29.5912338,17.7933634 C29.5709874,16.3658643 29.9887976,15.1832733 30.844677,14.2455547 C31.7005564,13.3078362 32.8093617,12.8271856 34.1711264,12.8035886 C35.5312374,12.8116032 36.6373501,13.2896789 37.4894978,14.2378299 C38.3416456,15.185981 38.7620596,16.3729598 38.7507524,17.7988022 L38.7921857,36.059268 C38.7808785,37.4851104 38.3472917,38.6668731 37.4914123,39.6045917 C36.635533,40.5423102 35.5275545,41.0071551 34.1674434,40.9991405 Z M22.2474327,40.619508 C21.8258778,40.6194683 21.4149907,40.5731636 21.014759,40.4805924 C19.9679994,40.2384833 19.1521944,39.6274576 18.5673197,38.6474969 C16.8241192,40.1610853 14.802747,40.9118284 12.5031424,40.8997487 C11.5605637,40.9091506 10.6428759,40.8106006 9.75005142,40.6040958 C6.85606869,39.9347353 4.51402107,38.3128309 2.72383829,35.738334 C0.933655508,33.1638371 0.025718491,30.1030754 0,26.5559569 C0.00722657183,25.2581165 0.152992683,23.9923389 0.437302708,22.7585861 C1.15518552,19.6433605 2.61722681,17.0982729 4.82347045,15.1232471 C7.02971411,13.1482212 9.57745282,12.1537412 12.4667631,12.1397773 C13.2790858,12.1327358 14.0546802,12.2146641 14.7935694,12.3855647 C16.2405607,12.7202449 17.5051471,13.3538528 18.5873663,14.2864072 C19.4542742,13.0574546 20.6692457,12.4288254 22.2323171,12.4005007 C22.7462332,12.4219029 23.2186935,12.4824491 23.6497122,12.5821412 C25.6816575,13.0521177 26.7033861,14.8803155 26.7149287,18.0667894 L26.7097906,34.975415 C26.6978519,36.0122632 26.6172524,36.8545348 26.4679897,37.5022549 C25.9846626,39.5996346 24.5778244,40.6387085 22.2474327,40.619508 Z M9.43893586,24.6456831 C9.29678082,25.2625594 9.21264729,25.9090897 9.18653276,26.5852933 C9.18876996,27.9827861 9.49060721,29.2058987 10.0920535,30.2546679 C10.6934998,31.3034371 11.5175904,31.9488665 12.5643501,32.1909757 C13.7650451,32.4686891 14.7988112,32.2042395 15.6656795,31.3976192 C16.4733298,30.7072532 17.0228556,29.7297866 17.3142733,28.46519 C17.4493206,27.8791575 17.514507,27.2444885 17.5098346,26.5611641 C17.5147051,25.1328274 17.2181986,23.8865823 16.6203062,22.8223912 C16.0224138,21.7582001 15.2154933,21.1086202 14.1995206,20.8736319 C12.9988257,20.5959185 11.9780869,20.8390157 11.1372738,21.6029308 C10.2964606,22.3668459 9.73035361,23.3810865 9.43893586,24.6456831 Z" id="Combined-Shape" fill="#146F19"></path>
            </g>
        </g>
    </g>
</svg>