<?xml version="1.0" encoding="UTF-8"?>
<svg width="230px" height="182px" viewBox="0 0 230 182" version="1.1" xmlns="http://www.w3.org/2000/svg" xmlns:xlink="http://www.w3.org/1999/xlink">
    <!-- Generator: Sketch 54.1 (76490) - https://sketchapp.com -->
    <title>Group 6</title>
    <desc>Created with Sketch.</desc>
    <g id="Page-1" stroke="none" stroke-width="1" fill="none" fill-rule="evenodd">
        <g id="Desktop-HD-Copy-3" transform="translate(-978.000000, -682.000000)">
            <g id="Group" transform="translate(231.000000, 682.000000)">
                <g id="Group-6" transform="translate(747.000000, 0.000000)">
                    <rect id="Rectangle-Copy-2" fill="#04BB97" x="0" y="0" width="230" height="182" rx="10"></rect>
                    <path d="M148.375,54.8125 C150.563834,54.8125 152.338235,56.5753788 152.338235,58.75 L152.338235,102.0625 C152.338235,104.237121 150.563834,106 148.375,106 L84.9632353,106 C82.7744009,106 81,104.237121 81,102.0625 L81,58.75 C81,56.5753788 82.7744009,54.8125 84.9632353,54.8125 L104.779412,54.8125 L104.779412,46.9375 C104.779412,44.7628788 106.553813,43 108.742647,43 L124.595588,43 C126.784423,43 128.558824,44.7628788 128.558824,46.9375 L128.558824,54.8125 L148.375,54.8125 Z M108.794118,46.7058824 L108.794118,55.0441176 L124.544118,55.0441176 L124.544118,46.7058824 L108.794118,46.7058824 Z M127.69787,75.2263305 C128.400834,74.1219203 128.175989,72.632431 127.127574,71.8011081 C126.007658,70.9137895 124.380332,71.1015909 123.492152,72.2215077 L114.595706,83.4439351 L109.009905,79.4062044 C108.004565,78.6782585 106.591747,78.7575142 105.675138,79.6551706 C104.651706,80.6579268 104.635338,82.2998971 105.637233,83.3233287 C106.057633,83.752343 113.050221,90.9663299 113.555045,91.2902443 C115.058317,92.2550956 117.059523,91.8174666 118.024374,90.3133323 C118.123443,90.1582669 127.629814,75.3322918 127.69787,75.2263305 Z" id="Combined-Shape" fill="#FFFFFF" fill-rule="nonzero"></path>
                    <path d="M100.798828,149.739746 L100.798828,155 L97.7226562,155 L97.7226562,140.070312 L103.546875,140.070312 C104.667974,140.070312 105.654048,140.275389 106.505127,140.685547 C107.356205,141.095705 108.01074,141.678463 108.46875,142.433838 C108.92676,143.189213 109.155762,144.048823 109.155762,145.012695 C109.155762,146.475593 108.655034,147.629146 107.653564,148.473389 C106.652095,149.317631 105.266122,149.739746 103.495605,149.739746 L100.798828,149.739746 Z M100.798828,147.248047 L103.546875,147.248047 C104.360356,147.248047 104.980711,147.056643 105.407959,146.673828 C105.835207,146.291014 106.048828,145.744144 106.048828,145.033203 C106.048828,144.301754 105.833498,143.710451 105.402832,143.259277 C104.972166,142.808103 104.377445,142.575684 103.618652,142.562012 L100.798828,142.562012 L100.798828,147.248047 Z M114.344238,149.739746 L114.344238,155 L111.268066,155 L111.268066,140.070312 L117.092285,140.070312 C118.213385,140.070312 119.199459,140.275389 120.050537,140.685547 C120.901616,141.095705 121.55615,141.678463 122.01416,142.433838 C122.47217,143.189213 122.701172,144.048823 122.701172,145.012695 C122.701172,146.475593 122.200444,147.629146 121.198975,148.473389 C120.197505,149.317631 118.811532,149.739746 117.041016,149.739746 L114.344238,149.739746 Z M114.344238,147.248047 L117.092285,147.248047 C117.905766,147.248047 118.526121,147.056643 118.953369,146.673828 C119.380617,146.291014 119.594238,145.744144 119.594238,145.033203 C119.594238,144.301754 119.378908,143.710451 118.948242,143.259277 C118.517576,142.808103 117.922855,142.575684 117.164062,142.562012 L114.344238,142.562012 L114.344238,147.248047 Z M133.242188,151.923828 L127.848633,151.923828 L126.823242,155 L123.552246,155 L129.109863,140.070312 L131.960449,140.070312 L137.548828,155 L134.277832,155 L133.242188,151.923828 Z M128.679199,149.432129 L132.411621,149.432129 L130.535156,143.84375 L128.679199,149.432129 Z" id="PPA" fill="#FFFFFF" fill-rule="nonzero"></path>
                </g>
            </g>
        </g>
    </g>
</svg>