<?xml version="1.0" encoding="UTF-8"?>
<svg width="63px" height="44px" viewBox="0 0 63 44" version="1.1" xmlns="http://www.w3.org/2000/svg" xmlns:xlink="http://www.w3.org/1999/xlink">
    <!-- Generator: Sketch 54.1 (76490) - https://sketchapp.com -->
    <title>Shape</title>
    <desc>Created with Sketch.</desc>
    <g id="Page-1" stroke="none" stroke-width="1" fill="none" fill-rule="evenodd">
        <g id="Desktop-HD-Copy" transform="translate(-812.000000, -173.000000)" fill="#F5A623">
            <path d="M812,217 L874.857143,217 L874.857143,204.428571 L812,204.428571 L812,217 L812,217 Z M818.285714,207.571429 L824.571429,207.571429 L824.571429,213.857143 L818.285714,213.857143 L818.285714,207.571429 L818.285714,207.571429 Z M812,173 L812,185.571429 L874.857143,185.571429 L874.857143,173 L812,173 L812,173 Z M824.571429,182.428571 L818.285714,182.428571 L818.285714,176.142857 L824.571429,176.142857 L824.571429,182.428571 L824.571429,182.428571 Z M812,201.285714 L874.857143,201.285714 L874.857143,188.714286 L812,188.714286 L812,201.285714 L812,201.285714 Z M818.285714,191.857143 L824.571429,191.857143 L824.571429,198.142857 L818.285714,198.142857 L818.285714,191.857143 L818.285714,191.857143 Z" id="Shape"></path>
        </g>
    </g>
</svg>