<?xml version="1.0" encoding="UTF-8"?>
<svg width="230px" height="182px" viewBox="0 0 230 182" version="1.1" xmlns="http://www.w3.org/2000/svg" xmlns:xlink="http://www.w3.org/1999/xlink">
    <!-- Generator: Sketch 54.1 (76490) - https://sketchapp.com -->
    <title>Group 5</title>
    <desc>Created with Sketch.</desc>
    <g id="Page-1" stroke="none" stroke-width="1" fill="none" fill-rule="evenodd">
        <g id="Desktop-HD-Copy-3" transform="translate(-729.000000, -682.000000)">
            <g id="Group" transform="translate(231.000000, 682.000000)">
                <g id="Group-5" transform="translate(498.000000, 0.000000)">
                    <rect id="Rectangle-Copy-3" fill="#04BB97" x="5.68434189e-14" y="0" width="230" height="182" rx="10"></rect>
                    <path d="M123.996444,54.7715556 C119.510222,52.3804444 116.454222,47.6604444 116.454222,42.2222222 C116.454222,36.2062222 120.196444,31.0755556 125.475556,29 L125.475556,40.5822222 L135.864,40.5822222 L135.864,29 C141.143111,31.0755556 144.885333,36.2071111 144.885333,42.2222222 C144.885333,47.6604444 141.829333,52.3813333 137.343111,54.7715556 L137.343111,69.9297778 L124.853333,69.9297778 C125.883556,67.3128889 126.426667,64.5111111 126.426667,61.68 C126.426667,59.4355556 125.492444,57.4088889 123.996444,55.9573333 L123.996444,54.7715556 Z M131.852444,104.072889 C131.852444,106.793778 129.646222,109 126.924444,109 L102.568,109 L102.568,72.1404444 C102.964444,72.0186667 103.383111,71.9466667 103.821333,71.9466667 C109.481778,71.9466667 114.087111,67.3413333 114.087111,61.6808889 C114.087111,59.2746667 116.037333,57.3244444 118.443556,57.3244444 C120.849778,57.3244444 122.8,59.2746667 122.8,61.6808889 C122.8,66.1733333 121.223111,70.3013333 118.603556,73.5555556 L137.458667,73.5555556 C140.179556,73.5555556 142.385778,75.7617778 142.385778,78.4826667 C142.385778,81.184 140.210667,83.3751111 137.516444,83.4071111 C138.484444,84.3075556 139.093333,85.5875556 139.093333,87.0133333 C139.093333,89.7342222 136.887111,91.9404444 134.166222,91.9404444 L133.983111,91.9404444 C134.949333,92.84 135.557333,94.1191111 135.557333,95.5431111 C135.557333,98.264 133.351111,100.470222 130.630222,100.470222 L130.279111,100.470222 C131.245333,101.369778 131.852444,102.648889 131.852444,104.072889 Z M86.2773333,109 C86.096,109 85.9173333,108.988444 85.7413333,108.969778 L79,108.969778 L79,71.312 L98.944,71.312 L99.8506667,71.312 L99.8506667,73.5546667 L100.021333,73.5546667 L100.021333,109 L98.944,109 L86.2773333,109 Z" id="Combined-Shape" fill="#FFFFFF" fill-rule="nonzero"></path>
                    <path d="M76.8557129,151.083008 C76.8557129,150.50195 76.6506368,150.05591 76.2404785,149.744873 C75.8303202,149.433836 75.0920463,149.105715 74.0256348,148.760498 C72.9592232,148.415281 72.1149933,148.075197 71.4929199,147.740234 C69.7975989,146.824214 68.9499512,145.59034 68.9499512,144.038574 C68.9499512,143.23193 69.1772438,142.512454 69.6318359,141.880127 C70.0864281,141.2478 70.7392536,140.753908 71.590332,140.398438 C72.4414105,140.042967 73.3967232,139.865234 74.4562988,139.865234 C75.5227104,139.865234 76.4728962,140.058348 77.3068848,140.44458 C78.1408733,140.830812 78.7885719,141.375973 79.25,142.080078 C79.7114281,142.784183 79.9421387,143.58398 79.9421387,144.479492 L76.8659668,144.479492 C76.8659668,143.795895 76.6506369,143.264406 76.2199707,142.88501 C75.7893045,142.505613 75.1843301,142.315918 74.4050293,142.315918 C73.6530724,142.315918 73.0686056,142.474852 72.6516113,142.792725 C72.2346171,143.110597 72.026123,143.529294 72.026123,144.048828 C72.026123,144.534182 72.2705054,144.940916 72.7592773,145.269043 C73.2480493,145.59717 73.9675245,145.904784 74.9177246,146.191895 C76.6677334,146.718264 77.942623,147.37109 78.7424316,148.150391 C79.5422403,148.929691 79.9421387,149.900385 79.9421387,151.0625 C79.9421387,152.354499 79.453374,153.367916 78.4758301,154.102783 C77.4982861,154.83765 76.1823813,155.205078 74.5280762,155.205078 C73.3796329,155.205078 72.333745,154.994875 71.3903809,154.574463 C70.4470168,154.154051 69.7275415,153.578129 69.2319336,152.84668 C68.7363256,152.115231 68.4885254,151.267583 68.4885254,150.303711 L71.5749512,150.303711 C71.5749512,151.95118 72.5593163,152.774902 74.5280762,152.774902 C75.2595251,152.774902 75.8303202,152.626222 76.2404785,152.328857 C76.6506368,152.031493 76.8557129,151.616214 76.8557129,151.083008 Z M91.0061035,148.529785 L85.0998535,148.529785 L85.0998535,152.528809 L92.0314941,152.528809 L92.0314941,155 L82.0236816,155 L82.0236816,140.070312 L92.0109863,140.070312 L92.0109863,142.562012 L85.0998535,142.562012 L85.0998535,146.120117 L91.0061035,146.120117 L91.0061035,148.529785 Z M99.3630371,149.534668 L96.9123535,149.534668 L96.9123535,155 L93.8361816,155 L93.8361816,140.070312 L99.3835449,140.070312 C101.147226,140.070312 102.507564,140.463375 103.4646,141.249512 C104.421636,142.035648 104.900146,143.146477 104.900146,144.582031 C104.900146,145.600591 104.67969,146.449948 104.23877,147.130127 C103.797849,147.810306 103.129643,148.352049 102.234131,148.755371 L105.464111,154.856445 L105.464111,155 L102.162354,155 L99.3630371,149.534668 Z M96.9123535,147.042969 L99.3937988,147.042969 C100.166264,147.042969 100.764402,146.846438 101.188232,146.453369 C101.612063,146.060301 101.823975,145.518558 101.823975,144.828125 C101.823975,144.12402 101.624025,143.570315 101.224121,143.166992 C100.824217,142.76367 100.210697,142.562012 99.3835449,142.562012 L96.9123535,142.562012 L96.9123535,147.042969 Z M112.754639,151.29834 L116.138428,140.070312 L119.563232,140.070312 L114.364502,155 L111.155029,155 L105.976807,140.070312 L109.391357,140.070312 L112.754639,151.29834 Z M124.239014,155 L121.162842,155 L121.162842,140.070312 L124.239014,140.070312 L124.239014,155 Z M138.809814,150.026855 C138.693603,151.633309 138.100591,152.897945 137.030762,153.820801 C135.960932,154.743657 134.551034,155.205078 132.801025,155.205078 C130.886953,155.205078 129.381353,154.560797 128.28418,153.272217 C127.187006,151.983636 126.638428,150.214855 126.638428,147.96582 L126.638428,147.053223 C126.638428,145.617669 126.891355,144.353033 127.397217,143.259277 C127.903079,142.165522 128.625972,141.326419 129.565918,140.741943 C130.505864,140.157468 131.597894,139.865234 132.842041,139.865234 C134.564706,139.865234 135.952387,140.326656 137.005127,141.249512 C138.057867,142.172368 138.666259,143.467765 138.830322,145.135742 L135.75415,145.135742 C135.678955,144.17187 135.410647,143.472903 134.949219,143.038818 C134.487791,142.604734 133.785405,142.387695 132.842041,142.387695 C131.816645,142.387695 131.049319,142.755123 130.540039,143.48999 C130.030759,144.224857 129.769287,145.364738 129.755615,146.909668 L129.755615,148.037598 C129.755615,149.650887 129.999998,150.830074 130.48877,151.575195 C130.977542,152.320316 131.748286,152.692871 132.801025,152.692871 C133.751225,152.692871 134.460447,152.475832 134.928711,152.041748 C135.396975,151.607664 135.665283,150.93604 135.733643,150.026855 L138.809814,150.026855 Z M149.812256,148.529785 L143.906006,148.529785 L143.906006,152.528809 L150.837646,152.528809 L150.837646,155 L140.829834,155 L140.829834,140.070312 L150.817139,140.070312 L150.817139,142.562012 L143.906006,142.562012 L143.906006,146.120117 L149.812256,146.120117 L149.812256,148.529785 Z M160.384033,151.083008 C160.384033,150.50195 160.178957,150.05591 159.768799,149.744873 C159.358641,149.433836 158.620367,149.105715 157.553955,148.760498 C156.487543,148.415281 155.643314,148.075197 155.02124,147.740234 C153.325919,146.824214 152.478271,145.59034 152.478271,144.038574 C152.478271,143.23193 152.705564,142.512454 153.160156,141.880127 C153.614748,141.2478 154.267574,140.753908 155.118652,140.398438 C155.969731,140.042967 156.925044,139.865234 157.984619,139.865234 C159.051031,139.865234 160.001217,140.058348 160.835205,140.44458 C161.669194,140.830812 162.316892,141.375973 162.77832,142.080078 C163.239748,142.784183 163.470459,143.58398 163.470459,144.479492 L160.394287,144.479492 C160.394287,143.795895 160.178957,143.264406 159.748291,142.88501 C159.317625,142.505613 158.71265,142.315918 157.93335,142.315918 C157.181393,142.315918 156.596926,142.474852 156.179932,142.792725 C155.762937,143.110597 155.554443,143.529294 155.554443,144.048828 C155.554443,144.534182 155.798826,144.940916 156.287598,145.269043 C156.77637,145.59717 157.495845,145.904784 158.446045,146.191895 C160.196054,146.718264 161.470943,147.37109 162.270752,148.150391 C163.070561,148.929691 163.470459,149.900385 163.470459,151.0625 C163.470459,152.354499 162.981694,153.367916 162.00415,154.102783 C161.026606,154.83765 159.710702,155.205078 158.056396,155.205078 C156.907953,155.205078 155.862065,154.994875 154.918701,154.574463 C153.975337,154.154051 153.255862,153.578129 152.760254,152.84668 C152.264646,152.115231 152.016846,151.267583 152.016846,150.303711 L155.103271,150.303711 C155.103271,151.95118 156.087637,152.774902 158.056396,152.774902 C158.787845,152.774902 159.358641,152.626222 159.768799,152.328857 C160.178957,152.031493 160.384033,151.616214 160.384033,151.083008 Z" id="SERVICES" fill="#FFFFFF" fill-rule="nonzero"></path>
                </g>
            </g>
        </g>
    </g>
</svg>