<?xml version="1.0" encoding="UTF-8"?>
<svg width="230px" height="182px" viewBox="0 0 230 182" version="1.1" xmlns="http://www.w3.org/2000/svg" xmlns:xlink="http://www.w3.org/1999/xlink">
    <!-- Generator: Sketch 54.1 (76490) - https://sketchapp.com -->
    <title>Group 3</title>
    <desc>Created with Sketch.</desc>
    <g id="Page-1" stroke="none" stroke-width="1" fill="none" fill-rule="evenodd">
        <g id="Desktop-HD-Copy-3" transform="translate(-231.000000, -682.000000)">
            <g id="Group" transform="translate(231.000000, 682.000000)">
                <g id="Group-3">
                    <rect id="Rectangle" fill="#04BB97" x="0" y="0" width="230" height="182" rx="10"></rect>
                    <path d="M90.123291,142.562012 L85.5500488,142.562012 L85.5500488,155 L82.473877,155 L82.473877,142.562012 L77.9621582,142.562012 L77.9621582,140.070312 L90.123291,140.070312 L90.123291,142.562012 Z M104.140381,147.873535 C104.140381,149.343269 103.880618,150.63183 103.361084,151.739258 C102.84155,152.846685 102.098149,153.701169 101.130859,154.302734 C100.163569,154.9043 99.0544496,155.205078 97.8034668,155.205078 C96.5661559,155.205078 95.4621631,154.907718 94.4914551,154.312988 C93.5207471,153.718259 92.7688015,152.868902 92.2355957,151.764893 C91.7023899,150.660883 91.4323731,149.39112 91.4255371,147.955566 L91.4255371,147.217285 C91.4255371,145.747551 91.690427,144.453863 92.2202148,143.336182 C92.7500026,142.2185 93.4985303,141.360599 94.4658203,140.762451 C95.4331103,140.164304 96.5388121,139.865234 97.782959,139.865234 C99.0271058,139.865234 100.132808,140.164304 101.100098,140.762451 C102.067388,141.360599 102.815915,142.2185 103.345703,143.336182 C103.875491,144.453863 104.140381,145.744133 104.140381,147.207031 L104.140381,147.873535 Z M101.023193,147.196777 C101.023193,145.63134 100.742923,144.441899 100.182373,143.628418 C99.6218234,142.814937 98.8220267,142.408203 97.782959,142.408203 C96.7507273,142.408203 95.9543485,142.80981 95.3937988,143.613037 C94.8332492,144.416264 94.5495606,145.593742 94.5427246,147.145508 L94.5427246,147.873535 C94.5427246,149.397957 94.8229952,150.580562 95.3835449,151.421387 C95.9440946,152.262211 96.7507272,152.682617 97.8034668,152.682617 C98.8356985,152.682617 99.6286593,152.277592 100.182373,151.467529 C100.736087,150.657467 101.016357,149.47657 101.023193,147.924805 L101.023193,147.196777 Z M114.681396,152.528809 L121.213135,152.528809 L121.213135,155 L111.605225,155 L111.605225,140.070312 L114.681396,140.070312 L114.681396,152.528809 Z M131.959229,148.529785 L126.052979,148.529785 L126.052979,152.528809 L132.984619,152.528809 L132.984619,155 L122.976807,155 L122.976807,140.070312 L132.964111,140.070312 L132.964111,142.562012 L126.052979,142.562012 L126.052979,146.120117 L131.959229,146.120117 L131.959229,148.529785 Z M146.027588,142.562012 L141.454346,142.562012 L141.454346,155 L138.378174,155 L138.378174,142.562012 L133.866455,142.562012 L133.866455,140.070312 L146.027588,140.070312 L146.027588,142.562012 Z" id="TOLET" fill="#FFFFFF" fill-rule="nonzero"></path>
                    <path d="M113.666669,33 C100.043646,33 89.000004,44.0436454 89.000004,57.6666596 C88.9999908,71.2896738 113.666669,107.00002 113.666669,107.00002 C113.666669,107.00002 138.333346,71.2896738 138.333333,57.6666596 C138.333333,44.0436454 127.289691,33 113.666669,33 Z M113.666669,45.3333257 C116.937672,45.3333257 120.074704,46.6327268 122.387652,48.9456757 C124.700601,51.2586245 126.000001,54.3956562 126.000001,57.6666596 C126.000008,60.9376673 124.70061,64.0747054 122.387661,66.3876595 C120.074712,68.7006137 116.937676,70.0000182 113.666669,70.0000182 C110.395661,70.0000182 107.258626,68.7006137 104.945676,66.3876595 C102.632727,64.0747054 101.333329,60.9376673 101.333336,57.6666596 C101.333336,54.3956562 102.632737,51.2586245 104.945685,48.9456757 C107.258634,46.6327268 110.395665,45.3333257 113.666669,45.3333257 L113.666669,45.3333257 Z" id="Shape" fill="#FFFFFF" fill-rule="nonzero"></path>
                </g>
            </g>
        </g>
    </g>
</svg>