<?xml version="1.0" encoding="UTF-8"?>
<svg width="117px" height="117px" viewBox="0 0 117 117" version="1.1" xmlns="http://www.w3.org/2000/svg" xmlns:xlink="http://www.w3.org/1999/xlink">
    <!-- Generator: Sketch 54.1 (76490) - https://sketchapp.com -->
    <title>Group 3</title>
    <desc>Created with Sketch.</desc>
    <g id="Page-1" stroke="none" stroke-width="1" fill="none" fill-rule="evenodd">
        <g id="Desktop-HD-Copy-4" transform="translate(-383.000000, -449.000000)">
            <g id="Group-3" transform="translate(383.000000, 449.000000)">
                <rect id="Rectangle-Copy" stroke="#F5A623" stroke-width="2" fill="#F2F2F2" x="1" y="1" width="115" height="115" rx="9"></rect>
                <path d="M58.5,66.7777778 C61.9241654,66.7777778 64.7,63.991994 64.7,60.5555556 C64.7,57.1191171 61.9241654,54.3333333 58.5,54.3333333 C55.0758346,54.3333333 52.3,57.1191171 52.3,60.5555556 C52.3,63.991994 55.0758346,66.7777778 58.5,66.7777778 Z M53.85,45 L51.06,48.1111111 L46.1,48.1111111 C44.395,48.1111111 43,49.5111111 43,51.2222222 L43,69.8888889 C43,71.6 44.395,73 46.1,73 L70.9,73 C72.605,73 74,71.6 74,69.8888889 L74,51.2222222 C74,49.5111111 72.605,48.1111111 70.9,48.1111111 L65.94,48.1111111 L63.15,45 L53.85,45 L53.85,45 Z M58.5,68.3333333 C54.16,68.3333333 50.75,64.9111111 50.75,60.5555556 C50.75,56.2 54.16,52.7777778 58.5,52.7777778 C62.84,52.7777778 66.25,56.2 66.25,60.5555556 C66.25,64.9111111 62.84,68.3333333 58.5,68.3333333 L58.5,68.3333333 Z" id="Shape-Copy" fill="#7C7C7C"></path>
            </g>
        </g>
    </g>
</svg>