<?xml version="1.0" encoding="UTF-8"?>
<svg width="230px" height="182px" viewBox="0 0 230 182" version="1.1" xmlns="http://www.w3.org/2000/svg" xmlns:xlink="http://www.w3.org/1999/xlink">
    <!-- Generator: Sketch 54.1 (76490) - https://sketchapp.com -->
    <title>Group 4</title>
    <desc>Created with Sketch.</desc>
    <g id="Page-1" stroke="none" stroke-width="1" fill="none" fill-rule="evenodd">
        <g id="Desktop-HD-Copy-3" transform="translate(-479.000000, -682.000000)">
            <g id="Group" transform="translate(231.000000, 682.000000)">
                <g id="Group-4" transform="translate(248.000000, 0.000000)">
                    <rect id="Rectangle-Copy" fill="#04BB97" x="0" y="0" width="230" height="182" rx="10"></rect>
                    <path d="M94.2758621,99.862069 C94.2758621,95.9258966 97.4776207,92.7241379 101.413793,92.7241379 C105.349966,92.7241379 108.551724,95.9258966 108.551724,99.862069 C108.551724,103.798241 105.349966,107 101.413793,107 C97.4776207,107 94.2758621,103.798241 94.2758621,99.862069 Z M137.103448,99.862069 C137.103448,103.798241 133.90169,107 129.965517,107 C126.029345,107 122.827586,103.798241 122.827586,99.862069 C122.827586,95.9258966 126.029345,92.7241379 129.965517,92.7241379 C133.90169,92.7241379 137.103448,95.9258966 137.103448,99.862069 Z M146.62069,54.6551724 C148.166448,54.6551724 149.304552,56.1121034 148.929414,57.6118621 L142.241966,84.3616552 C141.711379,86.484 139.81269,87.9655172 137.62531,87.9655172 L96.3942414,87.9655172 C93.9784483,87.9655172 91.9465172,86.1564483 91.6681379,83.7588966 L86.8500345,45.137931 L83.5689655,45.137931 C81.5973103,45.137931 80,43.5406207 80,41.5689655 C80,39.5973103 81.5973103,38 83.5689655,38 L89.9637586,38 C91.7482414,38 93.2575172,39.3173448 93.5002069,41.0843793 L95.3576552,54.6551724 L146.62069,54.6551724 Z M129.522966,65.5555862 C130.170138,64.5388276 129.963138,63.1675517 128.997931,62.4022069 C127.966897,61.5853103 126.468724,61.7582069 125.651034,62.7892414 L117.460655,73.121 L112.318172,69.4037241 C111.392621,68.7335517 110.091931,68.8065172 109.248069,69.632931 C108.305862,70.5561034 108.290793,72.0677586 109.213172,73.0099655 C109.600207,73.404931 116.037828,80.0463793 116.502586,80.3445862 C117.886552,81.2328621 119.728931,80.8299655 120.617207,79.4452069 C120.708414,79.3024483 129.46031,65.6531379 129.522966,65.5555862 Z" id="Combined-Shape" fill="#FFFFFF" fill-rule="nonzero"></path>
                    <path d="M78.8859863,148.898926 L72.9797363,148.898926 L72.9797363,155 L69.9035645,155 L69.9035645,140.070312 L79.6242676,140.070312 L79.6242676,142.562012 L72.9797363,142.562012 L72.9797363,146.41748 L78.8859863,146.41748 L78.8859863,148.898926 Z M93.6721191,147.873535 C93.6721191,149.343269 93.4123561,150.63183 92.8928223,151.739258 C92.3732884,152.846685 91.6298876,153.701169 90.6625977,154.302734 C89.6953077,154.9043 88.5861879,155.205078 87.3352051,155.205078 C86.0978942,155.205078 84.9939013,154.907718 84.0231934,154.312988 C83.0524854,153.718259 82.3005398,152.868902 81.767334,151.764893 C81.2341282,150.660883 80.9641114,149.39112 80.9572754,147.955566 L80.9572754,147.217285 C80.9572754,145.747551 81.2221653,144.453863 81.7519531,143.336182 C82.2817409,142.2185 83.0302686,141.360599 83.9975586,140.762451 C84.9648486,140.164304 86.0705504,139.865234 87.3146973,139.865234 C88.5588441,139.865234 89.6645459,140.164304 90.6318359,140.762451 C91.5991259,141.360599 92.3476536,142.2185 92.8774414,143.336182 C93.4072292,144.453863 93.6721191,145.744133 93.6721191,147.207031 L93.6721191,147.873535 Z M90.5549316,147.196777 C90.5549316,145.63134 90.274661,144.441899 89.7141113,143.628418 C89.1535617,142.814937 88.353765,142.408203 87.3146973,142.408203 C86.2824655,142.408203 85.4860868,142.80981 84.9255371,143.613037 C84.3649874,144.416264 84.0812989,145.593742 84.0744629,147.145508 L84.0744629,147.873535 C84.0744629,149.397957 84.3547335,150.580562 84.9152832,151.421387 C85.4758329,152.262211 86.2824654,152.682617 87.3352051,152.682617 C88.3674368,152.682617 89.1603976,152.277592 89.7141113,151.467529 C90.267825,150.657467 90.5480957,149.47657 90.5549316,147.924805 L90.5549316,147.196777 Z M101.434326,149.534668 L98.9836426,149.534668 L98.9836426,155 L95.9074707,155 L95.9074707,140.070312 L101.454834,140.070312 C103.218515,140.070312 104.578853,140.463375 105.535889,141.249512 C106.492925,142.035648 106.971436,143.146477 106.971436,144.582031 C106.971436,145.600591 106.750979,146.449948 106.310059,147.130127 C105.869138,147.810306 105.200932,148.352049 104.30542,148.755371 L107.5354,154.856445 L107.5354,155 L104.233643,155 L101.434326,149.534668 Z M98.9836426,147.042969 L101.465088,147.042969 C102.237553,147.042969 102.835691,146.846438 103.259521,146.453369 C103.683352,146.060301 103.895264,145.518558 103.895264,144.828125 C103.895264,144.12402 103.695314,143.570315 103.29541,143.166992 C102.895506,142.76367 102.281987,142.562012 101.454834,142.562012 L98.9836426,142.562012 L98.9836426,147.042969 Z M122.280518,151.083008 C122.280518,150.50195 122.075442,150.05591 121.665283,149.744873 C121.255125,149.433836 120.516851,149.105715 119.450439,148.760498 C118.384028,148.415281 117.539798,148.075197 116.917725,147.740234 C115.222404,146.824214 114.374756,145.59034 114.374756,144.038574 C114.374756,143.23193 114.602049,142.512454 115.056641,141.880127 C115.511233,141.2478 116.164058,140.753908 117.015137,140.398438 C117.866215,140.042967 118.821528,139.865234 119.881104,139.865234 C120.947515,139.865234 121.897701,140.058348 122.731689,140.44458 C123.565678,140.830812 124.213377,141.375973 124.674805,142.080078 C125.136233,142.784183 125.366943,143.58398 125.366943,144.479492 L122.290771,144.479492 C122.290771,143.795895 122.075442,143.264406 121.644775,142.88501 C121.214109,142.505613 120.609135,142.315918 119.829834,142.315918 C119.077877,142.315918 118.49341,142.474852 118.076416,142.792725 C117.659422,143.110597 117.450928,143.529294 117.450928,144.048828 C117.450928,144.534182 117.69531,144.940916 118.184082,145.269043 C118.672854,145.59717 119.392329,145.904784 120.342529,146.191895 C122.092538,146.718264 123.367428,147.37109 124.167236,148.150391 C124.967045,148.929691 125.366943,149.900385 125.366943,151.0625 C125.366943,152.354499 124.878179,153.367916 123.900635,154.102783 C122.923091,154.83765 121.607186,155.205078 119.952881,155.205078 C118.804438,155.205078 117.75855,154.994875 116.815186,154.574463 C115.871821,154.154051 115.152346,153.578129 114.656738,152.84668 C114.16113,152.115231 113.91333,151.267583 113.91333,150.303711 L116.999756,150.303711 C116.999756,151.95118 117.984121,152.774902 119.952881,152.774902 C120.68433,152.774902 121.255125,152.626222 121.665283,152.328857 C122.075442,152.031493 122.280518,151.616214 122.280518,151.083008 Z M135.877197,151.923828 L130.483643,151.923828 L129.458252,155 L126.187256,155 L131.744873,140.070312 L134.595459,140.070312 L140.183838,155 L136.912842,155 L135.877197,151.923828 Z M131.314209,149.432129 L135.046631,149.432129 L133.170166,143.84375 L131.314209,149.432129 Z M144.654541,152.528809 L151.186279,152.528809 L151.186279,155 L141.578369,155 L141.578369,140.070312 L144.654541,140.070312 L144.654541,152.528809 Z M161.932373,148.529785 L156.026123,148.529785 L156.026123,152.528809 L162.957764,152.528809 L162.957764,155 L152.949951,155 L152.949951,140.070312 L162.937256,140.070312 L162.937256,142.562012 L156.026123,142.562012 L156.026123,146.120117 L161.932373,146.120117 L161.932373,148.529785 Z" id="FORSALE" fill="#FFFFFF" fill-rule="nonzero"></path>
                </g>
            </g>
        </g>
    </g>
</svg>